<svg xmlns="http://www.w3.org/2000/svg" width="24" height="15" viewBox="0 0 24 15"><defs><clipPath id="b"><rect width="24" height="15"/></clipPath></defs><g id="a" clip-path="url(#b)"><rect width="24" height="15" fill="none"/><g transform="translate(-1)"><path d="M7.5,15A7.5,7.5,0,0,1,2.2,2.2,7.5,7.5,0,0,1,15,7.5,7.5,7.5,0,0,1,7.5,15Zm0-12.654A5.155,5.155,0,1,0,12.654,7.5,5.161,5.161,0,0,0,7.5,2.346Z" transform="translate(5.502 0)" fill="#f43533"/><path d="M3.388,9.173h0A4.713,4.713,0,0,1,1.38,7.965a4.824,4.824,0,0,1,0-6.755A4.7,4.7,0,0,1,3.388,0V1.59a3.306,3.306,0,0,0-.966,5.319,3.2,3.2,0,0,0,.966.676V9.173Z" transform="translate(1 2.913)" fill="#414a50"/><path d="M3.388,9.173h0A4.713,4.713,0,0,1,1.38,7.965a4.824,4.824,0,0,1,0-6.755A4.7,4.7,0,0,1,3.388,0V1.59a3.306,3.306,0,0,0-.966,5.319,3.2,3.2,0,0,0,.966.676V9.173Z" transform="translate(25 12.086) rotate(180)" fill="#414a50"/></g></g></svg>
