<svg xmlns="http://www.w3.org/2000/svg" width="148" height="55" viewBox="0 0 148 55"><defs><filter id="a" x="0" y="0" width="148" height="55" filterUnits="userSpaceOnUse"><feOffset input="SourceAlpha"/><feGaussianBlur stdDeviation="3" result="b"/><feFlood flood-opacity="0.4"/><feComposite operator="in" in2="b"/><feComposite in="SourceGraphic"/></filter></defs><g transform="translate(-6233 9811)"><g transform="matrix(1, 0, 0, 1, 6233, -9811)" filter="url(#a)"><rect width="130" height="37" rx="6" transform="translate(9 9)" fill="#2b3338"/></g><g transform="translate(6335.673 -9794.141)"><path d="M10.183,20.37a10.184,10.184,0,0,1-7.2-17.385,10.183,10.183,0,0,1,17.383,7.2A10.183,10.183,0,0,1,10.183,20.37Zm0-17.185a7,7,0,1,0,7,7A7.008,7.008,0,0,0,10.183,3.185Z" transform="translate(7.957)" fill="#fff"/><path d="M7.317,19.555h0A10.192,10.192,0,0,1,7.317,0V3.389A7,7,0,0,0,5.232,14.728,6.915,6.915,0,0,0,7.317,16.17v3.383Z" transform="translate(0 0.407)" fill="#f43533"/></g><g transform="translate(-7)"><rect width="62" height="25" rx="4" transform="translate(6255 -9796)" fill="#fff"/></g><path d="M14.359-5.781,10.7-2.117V-5.109H1.734V-6.461H10.7L10.7-9.445Z" transform="translate(6315 -9778)" fill="#fff"/></g></svg>
