<svg xmlns="http://www.w3.org/2000/svg" width="36" height="30" viewBox="0 0 36 30"><g transform="translate(12297 7570)"><rect width="36" height="30" transform="translate(-12297 -7570)" fill="none"/><path d="M13.978,16.044a.439.439,0,0,0-.354-.3L9.319,15.12l-1.925-3.9a.439.439,0,0,0-.782,0l-1.931,3.9-4.305.626a.439.439,0,0,0-.244.749l3.115,3.037-.734,4.287a.439.439,0,0,0,.637.463L7,22.256l3.85,2.025a.439.439,0,0,0,.637-.463l-.735-4.287,3.115-3.037a.439.439,0,0,0,.111-.45Z" transform="translate(-12286.265 -7572.955)" fill="#606367"/></g></svg>
