<svg xmlns="http://www.w3.org/2000/svg" width="36" height="30" viewBox="0 0 36 30"><g transform="translate(-5893 11953)"><rect width="36" height="30" transform="translate(5893 -11953)" fill="none"/><g transform="translate(5897.5 -11951.5)"><path d="M13.266,11.053l-1.706,1.753L23.152,24.684l1.7-1.753Z" transform="translate(-2.353 -2.184)" fill="#606367"/><path d="M12.727,4.5h1.734V7.688H12.727Z" transform="translate(-2.742)" fill="#606367"/><path d="M12.727,18.422h1.734v3.188H12.727Z" transform="translate(-2.742 -4.641)" fill="#606367"/><path d="M18.984,12.375h3.234v1.734H18.984Z" transform="translate(-4.828 -2.625)" fill="#606367"/><path d="M19.781,7.526l-1.2-1.233L16.369,8.557l1.2,1.228Z" transform="translate(-3.956 -0.598)" fill="#606367"/><path d="M10.165,8.557,7.957,6.293l-1.2,1.233L8.965,9.785Z" transform="translate(-0.752 -0.598)" fill="#606367"/><path d="M6.757,18.408l1.2,1.228,2.208-2.259-1.2-1.233Z" transform="translate(-0.752 -3.881)" fill="#606367"/><path d="M4.5,12.375H7.547v1.734H4.5Z" transform="translate(0 -2.625)" fill="#606367"/></g></g></svg>
