<svg xmlns="http://www.w3.org/2000/svg" width="36" height="30" viewBox="0 0 36 30"><g transform="translate(12297 7570)"><rect width="36" height="30" transform="translate(-12297 -7570)" fill="none"/><path d="M.276,7.492,6.121,2.444a.8.8,0,0,1,1.318.6V5.706C12.774,5.767,17,6.836,17,11.892a6.789,6.789,0,0,1-2.768,5.119.592.592,0,0,1-.932-.619c1.506-4.816-.714-6.095-5.865-6.169v2.92a.8.8,0,0,1-1.318.6L.276,8.7a.8.8,0,0,1,0-1.206Z" transform="translate(-12287.502 -7564.689)" fill="#606367"/></g></svg>
