<svg xmlns="http://www.w3.org/2000/svg" width="36" height="30" viewBox="0 0 36 30"><g transform="translate(-318 -74)"><rect width="36" height="30" transform="translate(318 74)" fill="none"/><path d="M13137.447,4788.977a6.182,6.182,0,0,1-2.3-2.3,6.331,6.331,0,0,1-.838-3.2,1.043,1.043,0,0,1,.294-.743.929.929,0,0,1,.716-.3,1.036,1.036,0,0,1,1.032,1.046,4.32,4.32,0,0,0,4.316,4.315,4.043,4.043,0,0,0,3-1.267,4.18,4.18,0,0,0,1.24-3.048,4.5,4.5,0,0,0-.96-2.808,3.024,3.024,0,0,0-2.237-1.336l.462.449a1.043,1.043,0,0,1,.294.706,1.069,1.069,0,0,1-.294.729,1,1,0,0,1-1.468,0l-2.237-2.214a.884.884,0,0,1-.29-.752.807.807,0,0,1,.29-.693l2.211-2.273a1.043,1.043,0,0,1,1.458.013.987.987,0,0,1,.3.729,1.016,1.016,0,0,1-.29.742l-.462.436a6.256,6.256,0,0,1,3.791,2.188,6.118,6.118,0,0,1,1.521,4.072,6.207,6.207,0,0,1-.864,3.184,6.294,6.294,0,0,1-2.323,2.31,6.142,6.142,0,0,1-3.171.851A6.29,6.29,0,0,1,13137.447,4788.977ZM13127,4785v-2h5.17v2Zm0-4v-2h9.667v2Zm0-4v-2h9.667v2Z" transform="translate(-12801 -4693)" fill="#616266"/></g></svg>