<svg xmlns="http://www.w3.org/2000/svg" width="36" height="30" viewBox="0 0 36 30"><g transform="translate(12297 7570)"><rect width="36" height="30" transform="translate(-12297 -7570)" fill="none"/><path d="M12.291,14.882,9.982,12.6l.027-.027a15.926,15.926,0,0,0,3.373-5.936h2.664V4.818H9.682V3H7.864V4.818H1.5V6.627H11.655A14.284,14.284,0,0,1,8.773,11.5a14.223,14.223,0,0,1-2.1-3.045H4.855A15.965,15.965,0,0,0,7.564,12.6L2.936,17.164l1.291,1.291,4.545-4.545L11.6,16.736l.691-1.855Zm5.118-4.609H15.591L11.5,21.182h1.818l1.018-2.727h4.318l1.027,2.727H21.5Zm-2.382,6.364L16.5,12.7l1.473,3.936Z" transform="translate(-12290.5 -7567.091)" fill="#606367"/></g></svg>
